HIERARCHY
ROOT Hips
{
	OFFSET -0.001795 -0.223333 0.028219
	CHANNELS 6 Xposition Yposition Zposition Zrotation Yrotation Xrotation 
	JOINT LeftUpLeg
	{
		OFFSET 0.069520 -0.091406 -0.006815
		CHANNELS 3 Zrotation Yrotation Xrotation
		JOINT LeftLeg
		{
			OFFSET 0.034277 -0.375199 -0.004496
			CHANNELS 3 Zrotation Yrotation Xrotation
			JOINT LeftFoot
			{
				OFFSET -0.013596 -0.397961 -0.043693
				CHANNELS 3 Zrotation Yrotation Xrotation
				JOINT LeftToe
				{
					OFFSET 0.026358 -0.055791 0.119288
					CHANNELS 3 Zrotation Yrotation Xrotation
					End Site
					{
						OFFSET 0.000000 0.000000 0.000000
					}
				}
			}
		}
	}
	JOINT RightUpLeg
	{
		OFFSET -0.067670 -0.090522 -0.004320
		CHANNELS 3 Zrotation Yrotation Xrotation
		JOINT RightLeg
		{
			OFFSET -0.038290 -0.382569 -0.008850
			CHANNELS 3 Zrotation Yrotation Xrotation
			JOINT RightFoot
			{
				OFFSET 0.015774 -0.398415 -0.042312
				CHANNELS 3 Zrotation Yrotation Xrotation
				JOINT RightToe
				{
					OFFSET -0.025372 -0.048144 0.123348
					CHANNELS 3 Zrotation Yrotation Xrotation
					End Site
					{
						OFFSET 0.000000 0.000000 0.000000
					}
				}
			}
		}
	}
	JOINT Spine
	{
		OFFSET -0.002533 0.108963 -0.026696
		CHANNELS 3 Zrotation Yrotation Xrotation
		JOINT Spine1
		{
			OFFSET 0.005487 0.135180 0.001092
			CHANNELS 3 Zrotation Yrotation Xrotation
			JOINT Spine2
			{
				OFFSET 0.001457 0.052922 0.025425
				CHANNELS 3 Zrotation Yrotation Xrotation
				JOINT Neck
				{
					OFFSET -0.002778 0.213870 -0.042857
					CHANNELS 3 Zrotation Yrotation Xrotation
					JOINT Head
					{
						OFFSET 0.005152 0.064970 0.051349
						CHANNELS 3 Zrotation Yrotation Xrotation
						End Site
						{
							OFFSET 0.000000 0.000000 0.000000
						}
					}
				}
				JOINT LeftShoulder
				{
					OFFSET 0.078845 0.121749 -0.034090
					CHANNELS 3 Zrotation Yrotation Xrotation
					JOINT LeftArm
					{
						OFFSET 0.090977 0.030469 -0.008868
						CHANNELS 3 Zrotation Yrotation Xrotation
						JOINT LeftForeArm
						{
							OFFSET 0.259612 -0.012772 -0.027456
							CHANNELS 3 Zrotation Yrotation Xrotation
							JOINT LeftHand
							{
								OFFSET 0.249234 0.008986 -0.001171
								CHANNELS 3 Zrotation Yrotation Xrotation
								End Site
								{
									OFFSET 0.000000 0.000000 0.000000
								}
							}
						}
					}
				}
				JOINT RightShoulder
				{
					OFFSET -0.081759 0.118833 -0.038615
					CHANNELS 3 Zrotation Yrotation Xrotation
					JOINT RightArm
					{
						OFFSET -0.096012 0.032551 -0.009143
						CHANNELS 3 Zrotation Yrotation Xrotation
						JOINT RightForeArm
						{
							OFFSET -0.253742 -0.013329 -0.021401
							CHANNELS 3 Zrotation Yrotation Xrotation
							JOINT RightHand
							{
								OFFSET -0.255298 0.007772 -0.005559
								CHANNELS 3 Zrotation Yrotation Xrotation
								End Site
								{
									OFFSET 0.000000 0.000000 0.000000
								}
							}
						}
					}
				}
			}
		}
	}
}
MOTION
Frames: 7
Frame Time: 0.050000
0.000000 0.884756 0.000000 0.924337 1.159059 9.133422 7.811034 -1.234349 -37.513312 -19.471241 6.910143 33.297636 17.487699 31.139699 14.826596 0.000000 0.000000 0.000000 -2.441879 3.135708 -40.107422 11.845009 -3.698460 32.963381 -7.371835 -18.959419 19.592638 0.000000 0.000000 0.000000 2.120065 -3.010200 43.072712 0.333732 -0.184680 0.811774 -6.240607 2.546157 6.443658 13.870757 -6.211600 -18.931006 0.000000 0.000000 0.000000 -22.039638 -38.035712 19.819507 -27.214535 -31.854152 3.140212 16.246245 -16.417879 -1.659517 0.000000 0.000000 0.000000 23.593772 25.159993 15.125815 37.520669 33.691014 5.670211 -11.994537 22.726232 -1.251359 0.000000 0.000000 0.000000 
-0.001338 0.873797 0.006114 0.848362 2.310377 10.139811 10.282288 -0.707389 -40.001496 -23.661726 8.741610 34.479544 19.080125 33.056127 16.462983 0.000000 0.000000 0.000000 -2.764684 3.025616 -42.732972 13.678814 -5.078944 36.939562 -10.012395 -23.147075 15.522817 0.000000 0.000000 0.000000 1.261653 -2.908108 43.662264 2.062433 -1.053741 1.740642 -7.432140 4.912044 4.817157 15.877273 -6.072761 -22.462286 0.000000 0.000000 0.000000 -19.384706 -39.431700 18.915871 -28.062070 -34.027982 3.983124 15.337186 -15.629621 -1.482141 0.000000 0.000000 0.000000 25.408964 23.849501 16.023716 34.847890 34.350943 4.988805 -12.645652 24.151864 -1.388929 0.000000 0.000000 0.000000 
-0.001815 0.862749 0.011865 1.206526 2.808477 9.621444 11.229166 -0.491658 -40.876075 -25.075434 9.789877 36.934434 18.010307 31.787183 16.078853 0.000000 0.000000 0.000000 -3.931896 2.582142 -43.867968 15.989948 -6.832553 40.953126 -11.254628 -25.466422 12.226893 0.000000 0.000000 0.000000 1.031678 -3.010124 45.165364 2.275609 -1.169417 1.879325 -7.624168 4.515431 4.413650 13.439891 -5.360373 -19.814392 0.000000 0.000000 0.000000 -19.332565 -40.083481 19.371763 -26.721238 -34.862742 3.866724 16.958042 -13.077625 -1.406646 0.000000 0.000000 0.000000 25.104755 25.139853 16.612521 32.418503 34.788595 4.651168 -13.923799 24.761170 -1.716908 0.000000 0.000000 0.000000 
-0.001258 0.846414 0.017003 0.791720 2.664450 8.723546 13.698772 0.387627 -42.062251 -29.049251 12.581202 40.287330 19.288019 33.569710 15.104492 0.000000 0.000000 0.000000 -4.492464 2.563617 -47.415562 17.731073 -8.793284 47.519490 -12.896405 -27.451267 17.019217 0.000000 0.000000 0.000000 0.924280 -3.155210 47.896575 1.606191 -0.886638 2.618526 -7.576557 4.215168 3.938845 13.189769 -4.496069 -23.146647 0.000000 0.000000 0.000000 -16.517737 -41.215921 19.303969 -24.931933 -37.191125 3.840545 17.717722 -11.402379 -1.289970 0.000000 0.000000 0.000000 22.960760 26.941385 16.934717 31.654661 36.494315 5.107051 -15.376676 27.090912 -2.237902 0.000000 0.000000 0.000000 
0.000725 0.823996 0.020650 0.382912 3.381266 8.004032 15.438371 0.883876 -43.171515 -31.476200 14.464557 43.136086 19.263250 34.465451 11.357059 0.000000 0.000000 0.000000 -5.698157 1.991845 -50.243011 19.666088 -11.175981 52.706722 -13.546513 -28.086473 18.536331 0.000000 0.000000 0.000000 0.612527 -3.379510 50.346097 1.383071 -0.749134 1.949352 -7.269211 4.224958 4.039808 12.805807 -4.162032 -23.749313 0.000000 0.000000 0.000000 -14.495769 -43.199561 19.782245 -22.765639 -38.464812 3.468968 18.854967 -9.289875 -1.129193 0.000000 0.000000 0.000000 21.514773 28.540411 17.518157 30.086769 37.585639 5.038279 -17.670449 28.384935 -2.891433 0.000000 0.000000 0.000000 
0.004021 0.795622 0.022175 0.264008 3.595015 7.313708 17.650084 1.691498 -44.422911 -35.913698 17.656092 45.464240 20.075821 36.900435 6.722721 0.000000 0.000000 0.000000 -7.151062 1.332600 -53.827606 21.576298 -14.181003 59.806170 -13.109611 -27.789717 16.097977 0.000000 0.000000 0.000000 0.564288 -3.672450 53.344785 0.704473 -0.386508 1.182322 -7.186054 4.166302 4.527499 12.506733 -3.294469 -27.433397 0.000000 0.000000 0.000000 -12.016977 -44.667163 19.778826 -20.280218 -40.273724 2.999309 20.298202 -7.229627 -0.955259 0.000000 0.000000 0.000000 19.056577 29.688663 17.368996 27.778794 38.879467 4.803240 -19.552890 28.746367 -3.384495 0.000000 0.000000 0.000000 
0.007896 0.764595 0.021899 0.324848 4.761270 7.177365 19.100391 2.082177 -47.131099 -40.067004 20.617718 47.679379 22.081152 41.017535 3.857456 0.000000 0.000000 0.000000 -8.731848 0.152738 -57.449073 22.792421 -16.960558 65.335417 -13.521155 -28.579473 14.712847 0.000000 0.000000 0.000000 0.810496 -4.382368 55.711279 0.401109 -0.215419 0.479485 -7.239352 3.396742 4.684678 11.691295 -2.777482 -28.400532 0.000000 0.000000 0.000000 -10.373799 -45.449845 19.761574 -16.972751 -42.128277 2.238103 21.632548 -4.871363 -0.664162 0.000000 0.000000 0.000000 17.516401 31.103707 17.573739 25.387395 39.672481 4.353401 -21.830030 28.186233 -3.842695 0.000000 0.000000 0.000000 
